HIERARCHY
ROOT Hips
{
	OFFSET 0.000000 0.000000 0.000000
	CHANNELS 6 Xposition Yposition Zposition Xrotation Yrotation Zrotation
	JOINT LeftUpLeg_virtual
	{
		OFFSET 0.000000 0.000000 0.000000
		CHANNELS 3 Xrotation Yrotation Zrotation
		JOINT LeftUpLeg
		{
			OFFSET 10.205400 -3.823500 0.155100
			CHANNELS 3 Xrotation Yrotation Zrotation
			JOINT LeftLeg
			{
				OFFSET 0.708757 -12.982077 0.567790
				CHANNELS 3 Xrotation Yrotation Zrotation
				JOINT LeftFoot
				{
					OFFSET -0.708756 -10.717838 -2.184338
					CHANNELS 3 Xrotation Yrotation Zrotation
					JOINT LeftToeBase
					{
						OFFSET 0.108149 -7.191104 7.560241
						CHANNELS 3 Xrotation Yrotation Zrotation
						JOINT LeftToe_End
						{
							OFFSET 0.070230 0.081724 4.490308
							CHANNELS 3 Xrotation Yrotation Zrotation
							End Site
							{
								OFFSET 0 0 0
							}
						}
					}
				}
			}
		}
	}
	JOINT RightUpLeg_virtual
	{
		OFFSET 0.000000 0.000000 0.000000
		CHANNELS 3 Xrotation Yrotation Zrotation
		JOINT RightUpLeg
		{
			OFFSET -10.205400 -3.823500 0.005500
			CHANNELS 3 Xrotation Yrotation Zrotation
			JOINT RightLeg
			{
				OFFSET -0.708756 -12.982134 0.610632
				CHANNELS 3 Xrotation Yrotation Zrotation
				JOINT RightFoot
				{
					OFFSET 0.708754 -10.717769 -1.945823
					CHANNELS 3 Xrotation Yrotation Zrotation
					JOINT RightToeBase
					{
						OFFSET -0.108140 -7.191069 7.372968
						CHANNELS 3 Xrotation Yrotation Zrotation
						JOINT RightToe_End
						{
							OFFSET -0.070227 0.081735 4.479403
							CHANNELS 3 Xrotation Yrotation Zrotation
							End Site
							{
								OFFSET 0 0 0
							}
						}
					}
				}
			}
		}
	}
	JOINT Spine_virtual
	{
		OFFSET 0.000000 0.000000 0.000000
		CHANNELS 3 Xrotation Yrotation Zrotation
		JOINT Spine
		{
			OFFSET 0.000000 6.876099 0.125700
			CHANNELS 3 Xrotation Yrotation Zrotation
			JOINT Spine1
			{
				OFFSET 0.000000 5.730043 0.104720
				CHANNELS 3 Xrotation Yrotation Zrotation
				JOINT Spine1_split
				{
					OFFSET 0.000000 5.730043 0.104720
					CHANNELS 3 Xrotation Yrotation Zrotation
					JOINT Spine2
					{
						OFFSET 0.000000 5.730043 0.104720
						CHANNELS 3 Xrotation Yrotation Zrotation
						JOINT Neck_virtual
						{
							OFFSET 0.000000 0.000000 0.000000
							CHANNELS 3 Xrotation Yrotation Zrotation
							JOINT Neck
							{
								OFFSET 0.000000 10.314075 0.188496
								CHANNELS 3 Xrotation Yrotation Zrotation
								JOINT Head
								{
									OFFSET 0.000000 7.643700 -2.377400
									CHANNELS 3 Xrotation Yrotation Zrotation
									JOINT HeadTop_End
									{
										OFFSET 0.000000 43.788605 -13.619600
										CHANNELS 3 Xrotation Yrotation Zrotation
										End Site
										{
											OFFSET 0 0 0
										}
									}
								}
							}
						}
						JOINT LeftShoulder_virtual
						{
							OFFSET 0.000000 0.000000 0.000000
							CHANNELS 3 Xrotation Yrotation Zrotation
							JOINT LeftShoulder
							{
								OFFSET 2.196100 4.412489 0.087492
								CHANNELS 3 Xrotation Yrotation Zrotation
								JOINT LeftShoulder_split
								{
									OFFSET 2.196100 4.412489 0.087492
									CHANNELS 3 Xrotation Yrotation Zrotation
									JOINT LeftArm
									{
										OFFSET 8.771219 -2.981674 -0.026999
										CHANNELS 3 Xrotation Yrotation Zrotation
										JOINT LeftForeArm
										{
											OFFSET 8.512804 0.000000 -0.000000
											CHANNELS 3 Xrotation Yrotation Zrotation
											JOINT LeftHand
											{
												OFFSET 18.484802 0.000000 -0.000000
												CHANNELS 3 Xrotation Yrotation Zrotation
												End Site
												{
													OFFSET 0 0 0
												}
											}
										}
									}
								}
							}
						}
						JOINT RightShoulder_virtual
						{
							OFFSET 0.000000 0.000000 0.000000
							CHANNELS 3 Xrotation Yrotation Zrotation
							JOINT RightShoulder
							{
								OFFSET -2.196100 4.412496 0.070690
								CHANNELS 3 Xrotation Yrotation Zrotation
								JOINT RightShoulder_split
								{
									OFFSET -2.196100 4.412496 0.070690
									CHANNELS 3 Xrotation Yrotation Zrotation
									JOINT RightArm
									{
										OFFSET -8.771282 -2.981682 -0.094208
										CHANNELS 3 Xrotation Yrotation Zrotation
										JOINT RightForeArm
										{
											OFFSET -8.494598 0.000000 0.000000
											CHANNELS 3 Xrotation Yrotation Zrotation
											JOINT RightHand
											{
												OFFSET -18.483803 0.000000 0.000001
												CHANNELS 3 Xrotation Yrotation Zrotation
												End Site
												{
													OFFSET 0 0 0
												}
											}
										}
									}
								}
							}
						}
					}
				}
			}
		}
	}
}
MOTION
Frames: 5
Frame Time: 0.03333333
-0.768577 31.198654 0.031200 0.000000 0.000000 0.000000 -6.541315 -45.160637 -3.130578 -23.823474 2.701419 13.954289 36.890842 -11.448976 0.245064 -15.849859 1.382778 -11.019425 -0.149630 -2.817453 3.937565 0.000000 0.000000 0.000000 -6.373496 -41.370203 -2.489548 7.274080 -14.646432 -17.935148 29.947128 22.680198 -1.192087 -32.953153 -1.500230 5.478579 -1.672457 -3.816006 3.409149 0.000000 0.000000 0.000000 -8.415885 -43.732666 -4.303102 5.814470 -0.599830 1.156312 14.013316 0.192530 0.262391 0.911910 2.560478 -0.081980 0.000000 0.000000 0.000000 13.116099 0.363207 -0.336670 6.382959 -26.897275 -1.965965 -11.607770 -41.490391 0.199493 0.000000 0.000000 0.000000 13.659929 0.434612 -0.334698 0.022976 -6.060405 -7.049400 -4.550991 -3.550952 -0.637191 -2.223129 9.801044 -60.825696 0.754315 -55.402311 -2.459403 0.000000 0.000000 0.000000 14.536968 0.965260 -0.169399 0.830692 5.337668 8.142584 3.854856 1.649558 1.825710 5.016656 -24.681278 70.476617 -7.283659 56.641181 7.045104 0.000000 0.000000 0.000000 
-0.776685 31.249361 -0.016008 0.000000 0.000000 0.000000 -6.857125 -48.978805 -3.408932 -22.471459 3.218290 15.089488 36.417650 -9.041197 0.089674 -16.130673 2.147971 -12.767257 -0.215262 -2.790632 3.744568 0.000000 0.000000 0.000000 -6.611157 -45.314955 -2.731966 4.931657 -14.385550 -18.133548 30.982797 23.763958 -2.428701 -32.395133 -1.201668 5.557759 -1.132383 -2.702502 3.387258 0.000000 0.000000 0.000000 -8.772384 -47.766832 -4.733633 5.553846 -1.304343 1.158247 14.616572 -1.078472 0.626328 0.811342 2.529024 -0.193653 0.000000 0.000000 0.000000 13.624872 -0.840799 0.034860 6.483393 -26.806426 -2.384730 -11.381148 -42.792003 1.089366 0.000000 0.000000 0.000000 14.251278 -0.786605 -0.020133 -0.118352 -7.629201 -6.844218 -4.548535 -3.348129 -0.940193 -0.723885 10.968406 -60.748208 0.527959 -56.352694 -2.473130 0.000000 0.000000 0.000000 15.155585 -0.229731 0.201170 0.868781 4.024114 8.236795 4.194570 1.228274 1.982083 5.543583 -24.036612 70.253844 -6.658157 57.805469 6.752614 0.000000 0.000000 0.000000 
-0.788734 31.308516 -0.060635 0.000000 0.000000 0.000000 -7.209380 -52.811357 -3.675067 -21.058165 3.922021 16.060030 35.974613 -6.605873 -0.057384 -16.282112 2.816942 -14.495205 -0.327511 -2.791267 3.624410 0.000000 0.000000 0.000000 -6.870630 -49.264085 -2.950211 2.809782 -14.023570 -18.187709 31.913161 24.520087 -3.741041 -31.972020 -1.057060 5.690726 -0.774184 -1.922979 3.406871 0.000000 0.000000 0.000000 -9.180413 -51.761356 -5.180912 5.295990 -1.935350 1.130594 15.167477 -2.232957 0.929122 0.743681 2.451409 -0.267164 0.000000 0.000000 0.000000 14.098782 -1.929649 0.343277 6.302608 -26.620840 -2.919042 -10.971510 -43.916651 1.960082 0.000000 0.000000 0.000000 14.799760 -1.894800 0.238541 -0.260543 -9.035841 -6.595876 -4.513803 -3.108751 -1.156151 0.471741 12.134499 -60.524553 0.125417 -57.403164 -2.592326 0.000000 0.000000 0.000000 15.733870 -1.315039 0.512659 0.946134 2.680254 8.518091 4.628126 0.857300 2.104180 6.106928 -23.739747 69.762985 -6.028369 59.047341 6.523284 0.000000 0.000000 0.000000 
-0.800673 31.372913 -0.098131 0.000000 0.000000 0.000000 -7.583053 -56.609711 -3.938181 -19.611298 4.774377 16.845854 35.523015 -4.173375 -0.183675 -16.363072 3.380448 -16.202998 -0.461529 -2.815187 3.566332 0.000000 0.000000 0.000000 -7.125232 -53.156231 -3.145912 0.960175 -13.583032 -18.124190 32.660793 24.929084 -5.058358 -31.756176 -1.063741 5.757887 -0.389935 -1.432133 3.468048 0.000000 0.000000 0.000000 -9.628248 -55.674747 -5.655804 5.062799 -2.480324 1.080879 15.623991 -3.238269 1.149089 0.704934 2.374843 -0.348278 0.000000 0.000000 0.000000 14.504866 -2.867791 0.566851 5.893224 -26.369383 -3.496598 -10.439693 -44.930764 2.797111 0.000000 0.000000 0.000000 15.274598 -2.857731 0.423812 -0.400533 -10.265616 -6.322311 -4.421448 -2.842934 -1.281914 1.275947 13.166866 -60.134242 -0.411930 -58.403179 -2.794353 0.000000 0.000000 0.000000 16.226207 -2.258221 0.740209 1.072592 1.385204 8.973547 5.116450 0.546775 2.203250 6.647234 -23.770260 69.025434 -5.476718 60.281726 6.407517 0.000000 0.000000 0.000000 
-0.814046 31.437544 -0.119202 0.000000 0.000000 0.000000 -7.989596 -60.366141 -4.232223 -18.160339 5.734686 17.451668 35.061991 -1.772662 -0.276667 -16.385566 3.832126 -17.923234 -0.631540 -2.857762 3.559914 0.000000 0.000000 0.000000 -7.355468 -56.968409 -3.321238 -0.624413 -13.103358 -18.008648 33.267597 25.023588 -6.311282 -31.648470 -1.197469 5.765429 0.108844 -1.151784 3.529140 0.000000 0.000000 0.000000 -10.154810 -59.462035 -6.188867 4.874145 -2.945384 1.010676 15.954984 -4.083412 1.280187 0.720451 2.274920 -0.354529 0.000000 0.000000 0.000000 14.823339 -3.641752 0.700828 5.325122 -26.055789 -4.049378 -9.856058 -45.843864 3.561334 0.000000 0.000000 0.000000 15.652821 -3.660009 0.539796 -0.535992 -11.314687 -6.036489 -4.320909 -2.535792 -1.357144 1.745790 13.955729 -59.595866 -1.024810 -59.187435 -3.036193 0.000000 0.000000 0.000000 16.596207 -3.048628 0.875612 1.239328 0.201925 9.544605 5.624908 0.286266 2.316529 7.027834 -24.029111 68.124491 -5.077118 61.306569 6.433415 0.000000 0.000000 0.000000 
